<svg width="50" height="50" viewBox="0 0 50 50" fill="none" xmlns="http://www.w3.org/2000/svg">
<path d="M45 0H5C2.23858 0 0 2.23858 0 5V45C0 47.7614 2.23858 50 5 50H45C47.7614 50 50 47.7614 50 45V5C50 2.23858 47.7614 0 45 0Z" fill="#252F3E"/>
<path d="M18.0179 22.2636C18.0179 22.6752 18.0605 23.0089 18.135 23.2536C18.2201 23.4983 18.3266 23.7653 18.4756 24.0545C18.5288 24.1435 18.5501 24.2325 18.5501 24.3103C18.5501 24.4216 18.4862 24.5328 18.3478 24.644L17.6773 25.1112C17.5816 25.178 17.4858 25.2113 17.4006 25.2113C17.2942 25.2113 17.1878 25.1557 17.0813 25.0556C16.9323 24.8887 16.8046 24.7108 16.6982 24.5328C16.5918 24.3437 16.4853 24.1324 16.3683 23.8765C15.5381 24.8999 14.4951 25.4116 13.2393 25.4116C12.3453 25.4116 11.6322 25.1446 11.1107 24.6107C10.5892 24.0767 10.3231 23.3648 10.3231 22.475C10.3231 21.5295 10.6424 20.7619 11.2916 20.1835C11.9408 19.6051 12.8029 19.3159 13.8991 19.3159C14.261 19.3159 14.6335 19.3493 15.0273 19.4049C15.4211 19.4605 15.8255 19.5495 16.2512 19.6496V18.8376C16.2512 17.9922 16.0809 17.4027 15.751 17.0578C15.4104 16.713 14.8357 16.5462 14.0162 16.5462C13.6437 16.5462 13.2606 16.5907 12.8668 16.6908C12.473 16.7909 12.0898 16.9132 11.7173 17.069C11.547 17.1468 11.4193 17.1913 11.3448 17.2136C11.2703 17.2358 11.2171 17.2469 11.1745 17.2469C11.0255 17.2469 10.951 17.1357 10.951 16.9021V16.3571C10.951 16.1791 10.9723 16.0456 11.0255 15.9677C11.0788 15.8899 11.1745 15.812 11.3235 15.7341C11.696 15.5339 12.143 15.3671 12.6645 15.2336C13.186 15.089 13.7395 15.0222 14.3248 15.0222C15.5913 15.0222 16.5173 15.3226 17.1133 15.9232C17.6986 16.5239 17.9966 17.436 17.9966 18.6596V22.2636H18.0179ZM13.6969 23.9544C14.0481 23.9544 14.41 23.8876 14.7931 23.7542C15.1763 23.6207 15.5168 23.376 15.8042 23.0423C15.9745 22.8309 16.1022 22.5973 16.1661 22.3304C16.2299 22.0634 16.2725 21.7408 16.2725 21.3626V20.8954C15.9638 20.8176 15.6339 20.7508 15.2933 20.7063C14.9528 20.6618 14.6228 20.6396 14.2929 20.6396C13.5798 20.6396 13.0583 20.7842 12.7071 21.0845C12.3559 21.3849 12.1856 21.8076 12.1856 22.3637C12.1856 22.8865 12.3133 23.2758 12.5794 23.5428C12.8348 23.8209 13.2073 23.9544 13.6969 23.9544ZM22.2431 25.1557C22.0516 25.1557 21.9238 25.1223 21.8387 25.0445C21.7536 24.9777 21.6791 24.822 21.6152 24.6107L19.1141 16.0122C19.0503 15.7898 19.0183 15.6452 19.0183 15.5673C19.0183 15.3893 19.1035 15.2892 19.2738 15.2892H20.3168C20.519 15.2892 20.6573 15.3226 20.7318 15.4004C20.817 15.4672 20.8808 15.6229 20.9447 15.8343L22.7327 23.198L24.393 15.8343C24.4462 15.6118 24.5101 15.4672 24.5952 15.4004C24.6803 15.3337 24.8293 15.2892 25.0209 15.2892H25.8723C26.0746 15.2892 26.2129 15.3226 26.2981 15.4004C26.3832 15.4672 26.4577 15.6229 26.5003 15.8343L28.1818 23.287L30.0231 15.8343C30.0869 15.6118 30.1614 15.4672 30.2359 15.4004C30.3211 15.3337 30.4594 15.2892 30.651 15.2892H31.6408C31.8111 15.2892 31.9068 15.3782 31.9068 15.5673C31.9068 15.6229 31.8962 15.6785 31.8856 15.7453C31.8749 15.812 31.8536 15.901 31.8111 16.0234L29.2461 24.6218C29.1823 24.8443 29.1078 24.9889 29.0226 25.0556C28.9375 25.1223 28.7991 25.1668 28.6182 25.1668H27.7029C27.5007 25.1668 27.3623 25.1335 27.2772 25.0556C27.1921 24.9777 27.1176 24.8331 27.075 24.6107L25.4253 17.436L23.7863 24.5995C23.7331 24.822 23.6693 24.9666 23.5841 25.0445C23.499 25.1223 23.35 25.1557 23.1584 25.1557H22.2431ZM35.9192 25.456C35.3658 25.456 34.8123 25.3893 34.2802 25.2558C33.7481 25.1223 33.333 24.9777 33.0563 24.8109C32.886 24.7108 32.7689 24.5995 32.7263 24.4994C32.6838 24.3993 32.6625 24.2881 32.6625 24.188V23.6207C32.6625 23.3871 32.7476 23.2758 32.9073 23.2758C32.9711 23.2758 33.035 23.287 33.0988 23.3092C33.1627 23.3315 33.2585 23.376 33.3649 23.4205C33.7268 23.5873 34.1206 23.7208 34.5356 23.8098C34.9613 23.8988 35.3764 23.9433 35.8021 23.9433C36.4726 23.9433 36.9941 23.8209 37.356 23.5762C37.7178 23.3315 37.9094 22.9755 37.9094 22.5195C37.9094 22.208 37.8136 21.9522 37.6221 21.7408C37.4305 21.5295 37.0686 21.3404 36.5471 21.1624L35.0039 20.6618C34.227 20.406 33.6523 20.0278 33.3011 19.5272C32.9498 19.0378 32.7689 18.4928 32.7689 17.9143C32.7689 17.4472 32.8647 17.0356 33.0563 16.6796C33.2478 16.3237 33.5033 16.0122 33.8226 15.7675C34.1418 15.5117 34.5037 15.3226 34.9294 15.1891C35.3551 15.0556 35.8021 15 36.2704 15C36.5046 15 36.7493 15.0111 36.9835 15.0445C37.2283 15.0779 37.4518 15.1224 37.6753 15.1669C37.8881 15.2225 38.0903 15.2781 38.2819 15.3448C38.4735 15.4116 38.6225 15.4783 38.7289 15.545C38.8779 15.634 38.9843 15.723 39.0482 15.8231C39.1121 15.9121 39.144 16.0345 39.144 16.1902V16.713C39.144 16.9466 39.0588 17.069 38.8992 17.069C38.8141 17.069 38.6757 17.0245 38.4948 16.9355C37.8881 16.6463 37.207 16.5017 36.4513 16.5017C35.8447 16.5017 35.3658 16.6018 35.0358 16.8131C34.7059 17.0245 34.5356 17.347 34.5356 17.8031C34.5356 18.1146 34.6421 18.3815 34.8549 18.5929C35.0678 18.8042 35.4616 19.0156 36.0256 19.2047L37.5369 19.7052C38.3032 19.9611 38.8566 20.317 39.1866 20.7731C39.5165 21.2291 39.6761 21.7519 39.6761 22.3304C39.6761 22.8087 39.5803 23.2425 39.3994 23.6207C39.2078 23.9989 38.9524 24.3326 38.6225 24.5995C38.2926 24.8776 37.8988 25.0778 37.4411 25.2225C36.9622 25.3782 36.462 25.456 35.9192 25.456Z" fill="white"/>
<path fill-rule="evenodd" clip-rule="evenodd" d="M37.9307 30.8622C34.4292 33.5652 29.3419 35.0001 24.9677 35.0001C18.8374 35.0001 13.3138 32.6308 9.14176 28.6931C8.81184 28.3817 9.10984 27.959 9.50362 28.2037C14.0162 30.9401 19.5824 32.5975 25.3402 32.5975C29.2248 32.5975 33.4926 31.7521 37.4199 30.0168C38.0052 29.7387 38.5054 30.4173 37.9307 30.8622Z" fill="#FF9900"/>
<path fill-rule="evenodd" clip-rule="evenodd" d="M39.3888 29.127C38.9418 28.5263 36.4301 28.8378 35.2913 28.9824C34.9507 29.0269 34.8975 28.7154 35.2061 28.4818C37.207 27.0136 40.4956 27.4362 40.8788 27.9257C41.2619 28.4262 40.7724 31.8634 38.8992 33.5096C38.6119 33.7655 38.3351 33.632 38.4629 33.2983C38.8886 32.1971 39.8358 29.7165 39.3888 29.127Z" fill="#FF9900"/>
</svg>
