<svg width="50" height="50" viewBox="0 0 50 50" fill="none" xmlns="http://www.w3.org/2000/svg">
<path d="M45 0H5C2.23858 0 0 2.23858 0 5V45C0 47.7614 2.23858 50 5 50H45C47.7614 50 50 47.7614 50 45V5C50 2.23858 47.7614 0 45 0Z" fill="#0089D6"/>
<path d="M23.804 35.7183C27.9152 35.0151 31.3109 34.4331 31.3499 34.4251L31.4208 34.4106L27.5394 29.9401C25.4046 27.4814 23.658 25.4601 23.658 25.4485C23.658 25.4264 27.6659 14.7394 27.6884 14.7014C27.6959 14.6887 30.4234 19.2483 34.3 25.7543C37.9294 31.8453 40.9216 36.8674 40.9494 36.9144L41 37L28.6645 36.9985L16.329 36.9969L23.804 35.7183ZM9 34.355C9 34.3487 10.8289 31.2745 13.0642 27.5235L17.1285 20.7034L21.8649 16.8546C24.4699 14.7378 26.6083 13.0033 26.6169 13.0001C26.6255 12.9969 26.5912 13.0804 26.5408 13.1857C26.4903 13.2909 24.1759 18.0976 21.3977 23.8673L16.3463 34.3575L12.6732 34.362C10.6529 34.3645 9 34.3613 9 34.355Z" fill="white"/>
</svg>
