<svg width="50" height="50" viewBox="0 0 50 50" fill="none" xmlns="http://www.w3.org/2000/svg">
<path d="M45 0H5C2.23858 0 0 2.23858 0 5V45C0 47.7614 2.23858 50 5 50H45C47.7614 50 50 47.7614 50 45V5C50 2.23858 47.7614 0 45 0Z" fill="#0277BD"/>
<path d="M32.9464 32.3729L33.6964 36.9043C33.2321 37.1643 32.4821 37.4057 31.4821 37.6286C30.4643 37.87 29.2679 38 27.8929 38C23.9464 37.9257 20.9821 36.7 19 34.36C16.9643 32.0014 16 29.0114 16 25.39C16.0714 21.1 17.2857 17.8129 19.6429 15.51C21.9286 13.1886 24.8571 12 28.3929 12C29.7321 12 30.8929 12.13 31.8571 12.3529C32.8214 12.5757 33.5357 12.8171 34 13.0957L32.9286 17.72L31.0714 17.0886C30.3571 16.9029 29.5179 16.81 28.5714 16.81C26.5179 16.7914 24.8036 17.4786 23.4643 18.8529C22.1071 20.2086 21.4286 22.2886 21.3571 25.0557C21.375 27.5814 22.0179 29.55 23.2857 30.9986C24.5536 32.4286 26.3214 33.1714 28.625 33.19L31 32.9671C31.7679 32.8186 32.4107 32.6143 32.9464 32.3729Z" fill="white"/>
</svg>
