<svg width="50" height="50" viewBox="0 0 50 50" fill="none" xmlns="http://www.w3.org/2000/svg">
<path d="M45 0H5C2.23858 0 0 2.23858 0 5V45C0 47.7614 2.23858 50 5 50H45C47.7614 50 50 47.7614 50 45V5C50 2.23858 47.7614 0 45 0Z" fill="#0277BD"/>
<path d="M21.8696 31.2386L22.5113 35.0729C22.1043 35.2929 21.447 35.4971 20.5704 35.6857C19.6783 35.89 18.6296 36 17.4243 36C13.9652 35.9371 11.367 34.9 9.62957 32.92C7.87652 30.9243 7 28.3943 7 25.33C7.07826 21.7 8.12696 18.9186 10.1304 16.97C12.1965 15.0057 14.7635 14 17.8626 14C19.0365 14 20.0539 14.11 20.8991 14.2986C21.7443 14.4871 22.3704 14.6914 22.7774 14.9271L21.8696 18.84L20.2104 18.3057C19.5843 18.1486 18.8643 18.07 18.0348 18.07C16.2191 18.0543 14.7165 18.6357 13.5426 19.7986C12.353 20.9457 11.7426 22.7057 11.6957 25.0471C11.6957 27.1843 12.2748 28.85 13.3861 30.0757C14.4974 31.2857 16.0626 31.9143 18.0661 31.93L20.1478 31.7414C20.8209 31.6157 21.3843 31.4429 21.8696 31.2386ZM22.6522 23.4286H25.7826V20.2857H28.913V23.4286H32.0435V26.5714H28.913V29.7143H25.7826V26.5714H22.6522V23.4286ZM33.6087 23.4286H36.7391V20.2857H39.8696V23.4286H43V26.5714H39.8696V29.7143H36.7391V26.5714H33.6087V23.4286Z" fill="white"/>
</svg>
