<svg width="50" height="50" viewBox="0 0 50 50" fill="none" xmlns="http://www.w3.org/2000/svg">
<path d="M45 0H5C2.23858 0 0 2.23858 0 5V45C0 47.7614 2.23858 50 5 50H45C47.7614 50 50 47.7614 50 45V5C50 2.23858 47.7614 0 45 0Z" fill="#0087C9"/>
<path d="M15.4232 32.3381C14.5127 32.3381 13.6849 31.5612 13.6849 30.6115C13.6849 29.6619 14.4299 28.8849 15.4232 28.8849C16.4165 28.8849 17.1614 29.6619 17.1614 30.6115C17.1614 31.5612 16.3337 32.3381 15.4232 32.3381ZM36.7786 22.9281C36.613 21.5468 35.7853 20.4245 34.7093 19.5612L34.2954 19.2158L33.9643 19.6475C33.3021 20.4245 33.0538 21.8058 33.1366 22.8417C33.2193 23.6187 33.4677 24.3957 33.8815 25C33.5504 25.1727 33.1366 25.3453 32.8055 25.518C32.0605 25.777 31.3156 25.8633 30.5706 25.8633H9.13244L9.04966 26.3813C8.88412 28.0216 9.13244 29.7482 9.79462 31.3022L10.1257 31.9065V31.9928C12.1123 35.446 15.6715 37 19.5618 37C27.0114 37 33.1366 33.6331 36.0336 26.3813C37.9374 26.4676 39.8412 25.9496 40.7517 24.0504L41 23.6187L40.5861 23.3597C39.5101 22.6691 38.0202 22.5827 36.7786 22.9281ZM26.1009 21.5468H22.8727V24.9137H26.1009V21.5468ZM26.1009 17.3165H22.8727V20.6835H26.1009V17.3165ZM26.1009 13H22.8727V16.3669H26.1009V13ZM30.074 21.5468H26.8458V24.9137H30.074V21.5468ZM18.0719 21.5468H14.8438V24.9137H18.0719V21.5468ZM22.1278 21.5468H18.8996V24.9137H22.1278V21.5468ZM14.0988 21.5468H10.8707V24.9137H14.0988V21.5468ZM22.1278 17.3165H18.8996V20.6835H22.1278V17.3165ZM18.0719 17.3165H14.8438V20.6835H18.0719V17.3165Z" fill="white"/>
</svg>
