<svg width="50" height="50" viewBox="0 0 50 50" fill="none" xmlns="http://www.w3.org/2000/svg">
<path d="M45 0H5C2.23858 0 0 2.23858 0 5V45C0 47.7614 2.23858 50 5 50H45C47.7614 50 50 47.7614 50 45V5C50 2.23858 47.7614 0 45 0Z" fill="#3A3A3A"/>
<path d="M7.0836 32.866C6.78207 32.866 6.52605 32.9689 6.31556 33.1775C6.10405 33.3851 6 33.6363 6 33.9331C6 34.2221 6.10405 34.4723 6.31556 34.6832C6.52605 34.8941 6.78207 35 7.0836 35C7.393 35 7.65585 34.8941 7.8725 34.6832C8.08949 34.4723 8.19799 34.2221 8.19799 33.9331C8.19799 33.6435 8.08949 33.3927 7.8725 33.1818C7.65585 32.9699 7.393 32.866 7.0836 32.866ZM34.1669 22.6759H38.2453V34.7826H39.9011V22.6759H43.9719V21.2407H34.1669V22.6759ZM26.7768 28.6156H31.8813V27.1804H26.7768V22.6759H32.2865V21.2407H25.1217V34.7826H32.6113V33.3474H26.7768V28.6156ZM20.3461 30.7785C20.3461 31.7158 20.38 32.3806 20.4457 32.7692H20.407C20.3085 32.5878 20.1161 32.2858 19.8341 31.8637L12.7589 21.2407H10.6092V34.7826H12.2654V24.9985C12.2654 24.0484 12.2394 23.4279 12.1874 23.139H12.2469C12.3712 23.4472 12.5183 23.7299 12.6895 23.989L19.9823 34.7826H21.9917V21.2407H20.3461V30.7785ZM39.9165 18.5324C39.9165 19.2575 40.2519 19.6206 40.9245 19.6206C41.1637 19.6206 41.3567 19.5812 41.5025 19.5012V18.9975C41.3896 19.0768 41.2571 19.1168 41.1041 19.1168C40.8991 19.1168 40.7533 19.0647 40.6643 18.9588C40.576 18.8561 40.5332 18.679 40.5332 18.4314V16.3505H41.5025V15.85H40.5332V14.7586C40.3173 14.8258 40.113 14.8904 39.9165 14.9498V15.85H39.2559V16.3505H39.9165V18.5324ZM37.3995 19.5386H38.0159V16.3505H38.9181V15.85H38.0159V15.2817C38.0159 14.7605 38.2305 14.5001 38.6614 14.5001C38.8148 14.5001 38.9496 14.5329 39.0715 14.5972V14.064C38.963 14.0216 38.8148 14 38.6248 14C38.2959 14 38.0197 14.099 37.7931 14.2988C37.5292 14.5283 37.3995 14.8468 37.3995 15.2522V15.85H36.7451V16.3505H37.3995V19.5386ZM33.199 17.7151C33.199 17.2445 33.3191 16.8818 33.5618 16.6247C33.7931 16.3846 34.0998 16.2646 34.4831 16.2646C34.8706 16.2646 35.1735 16.3833 35.3888 16.6207C35.6112 16.8683 35.7231 17.2284 35.7231 17.701C35.7231 18.152 35.6194 18.4996 35.4107 18.7459C35.1981 18.9975 34.8887 19.1237 34.4831 19.1237C34.0926 19.1237 33.7805 18.9994 33.5457 18.7505C33.3143 18.5029 33.199 18.1566 33.199 17.7151ZM35.8361 19.0942C36.1814 18.74 36.356 18.2681 36.356 17.6801C36.356 17.0825 36.1931 16.6125 35.872 16.2708C35.55 15.9314 35.1019 15.7602 34.5283 15.7602C33.9441 15.7602 33.4776 15.9242 33.1299 16.2495C32.7558 16.6007 32.5665 17.0959 32.5665 17.7371C32.5665 18.2996 32.7321 18.7518 33.0624 19.0942C33.3999 19.4494 33.8599 19.6272 34.4383 19.6272C35.0246 19.6272 35.4904 19.4494 35.8361 19.0942ZM31.6044 19.3031C31.8405 19.1034 31.9583 18.8538 31.9583 18.5521C31.9583 18.2776 31.8632 18.052 31.6753 17.8752C31.5312 17.7348 31.2936 17.5981 30.9647 17.4669C30.6728 17.3475 30.478 17.2445 30.3873 17.1602C30.285 17.0697 30.233 16.9425 30.233 16.7795C30.233 16.628 30.2942 16.5046 30.4181 16.4076C30.5396 16.3125 30.7039 16.2646 30.9079 16.2646C31.2375 16.2646 31.5277 16.3518 31.781 16.5276V15.9327C31.5384 15.8176 31.2642 15.7602 30.9582 15.7602C30.5591 15.7602 30.234 15.8612 29.98 16.0655C29.7281 16.2685 29.6012 16.5233 29.6012 16.829C29.6012 17.1025 29.6826 17.3245 29.8452 17.4954C29.98 17.6394 30.21 17.7781 30.5328 17.9136C30.8453 18.0454 31.0564 18.1579 31.1639 18.252C31.2731 18.3452 31.3265 18.4642 31.3265 18.6082C31.3265 18.9512 31.0818 19.1237 30.5937 19.1237C30.2282 19.1237 29.8952 19.0053 29.593 18.7705V19.4051C29.8644 19.5537 30.184 19.6272 30.5489 19.6272C30.9928 19.6272 31.3463 19.5193 31.6044 19.3031ZM26.1111 16.6247C26.3408 16.3846 26.6478 16.2646 27.0308 16.2646C27.4193 16.2646 27.7215 16.3833 27.9374 16.6207C28.1592 16.8683 28.2708 17.2284 28.2708 17.701C28.2708 18.152 28.1671 18.4996 27.9587 18.7459C27.7461 18.9975 27.436 19.1237 27.0308 19.1237C26.6396 19.1237 26.3275 18.9994 26.0957 18.7505C25.8623 18.5029 25.7466 18.1566 25.7466 17.7151C25.7466 17.2445 25.8678 16.8818 26.1111 16.6247ZM26.9853 19.6272C27.5709 19.6272 28.0374 19.4494 28.3844 19.0942C28.7294 18.74 28.9026 18.2681 28.9026 17.6801C28.9026 17.0825 28.7407 16.6125 28.4207 16.2708C28.0976 15.9314 27.6492 15.7602 27.0756 15.7602C26.4921 15.7602 26.0266 15.9242 25.6785 16.2495C25.302 16.6007 25.1142 17.0959 25.1142 17.7371C25.1142 18.2996 25.2801 18.7518 25.6104 19.0942C25.9479 19.4494 26.4079 19.6272 26.9853 19.6272ZM23.8782 15.9874C23.691 16.134 23.5521 16.341 23.461 16.6109H23.4456V15.85H22.8309V19.5386H23.4456V17.6578C23.4456 17.2298 23.5421 16.8956 23.7359 16.6532C23.9063 16.4374 24.1161 16.3298 24.367 16.3298C24.5727 16.3298 24.7288 16.3685 24.8376 16.4482V15.8359C24.7541 15.8028 24.6316 15.7861 24.4686 15.7861C24.2499 15.7861 24.0535 15.8533 23.8782 15.9874ZM20.8434 19.6272C21.2497 19.6272 21.6022 19.5412 21.8976 19.3677V18.8066C21.6022 19.0181 21.2873 19.1237 20.9502 19.1237C20.5518 19.1237 20.2359 18.9991 19.9984 18.7492C19.7619 18.4983 19.6428 18.1595 19.6428 17.7299C19.6428 17.2832 19.7739 16.9251 20.0306 16.6575C20.278 16.3958 20.5967 16.2646 20.9886 16.2646C21.3147 16.2646 21.619 16.36 21.9055 16.5535V15.9474C21.6471 15.8235 21.35 15.7602 21.0153 15.7602C20.4036 15.7602 19.9169 15.9461 19.5552 16.3184C19.1924 16.6903 19.0117 17.1793 19.0117 17.783C19.0117 18.3215 19.1777 18.7613 19.5079 19.1014C19.8468 19.452 20.2914 19.6272 20.8434 19.6272ZM17.4414 19.5386H18.0564V15.85H17.4414V19.5386ZM17.7569 14.914C17.8699 14.914 17.9657 14.8766 18.0438 14.8019C18.1228 14.7277 18.1622 14.6369 18.1622 14.5283C18.1622 14.4218 18.1228 14.3306 18.0438 14.2568C17.9657 14.1833 17.8699 14.1473 17.7569 14.1473C17.6467 14.1473 17.5519 14.1833 17.4729 14.2568C17.3948 14.3306 17.3558 14.4218 17.3558 14.5283C17.3558 14.6418 17.3948 14.7337 17.4729 14.8058C17.5519 14.8776 17.6467 14.914 17.7569 14.914ZM11.2229 16.077C11.2229 15.6119 11.2119 15.2761 11.1934 15.0692H11.2068C11.2616 15.3115 11.3156 15.4886 11.367 15.5988L13.2094 19.5386H13.5177L15.356 15.5699C15.4032 15.4663 15.4577 15.2997 15.5169 15.0692H15.5316C15.497 15.4634 15.4789 15.7966 15.4789 16.0701V19.5386H16.1107V14.3739H15.319L13.6307 17.9608C13.565 18.0995 13.4801 18.3114 13.3719 18.5937H13.3459C13.3069 18.4531 13.2261 18.2468 13.1012 17.9755L11.4474 14.3739H10.613V19.5386H11.2229V16.077ZM42.3236 15.4404C42.4961 15.2741 42.7124 15.1915 42.9725 15.1915C43.2248 15.1915 43.439 15.2741 43.6143 15.4388C43.7888 15.6037 43.8764 15.8113 43.8764 16.0576C43.8764 16.3052 43.7888 16.5135 43.6122 16.6781C43.4366 16.846 43.2227 16.929 42.9725 16.929C42.7206 16.929 42.5067 16.847 42.3322 16.6814C42.1552 16.5155 42.0662 16.3065 42.0662 16.0576C42.0662 15.8133 42.1518 15.6073 42.3236 15.4404ZM42.9681 17.0284C43.2587 17.0284 43.5034 16.9343 43.7019 16.747C43.9011 16.5601 44 16.3285 44 16.052C44 15.7707 43.9004 15.5378 43.6998 15.3538C43.5047 15.1744 43.2635 15.0833 42.976 15.0833C42.683 15.0833 42.4379 15.178 42.2408 15.3663C42.044 15.5558 41.9451 15.7861 41.9451 16.0603C41.9451 16.3403 42.0413 16.5712 42.236 16.7549C42.4297 16.9366 42.6737 17.0284 42.9681 17.0284ZM42.7528 15.5699H42.915C43.0273 15.5699 43.1077 15.5883 43.155 15.6247C43.1971 15.6585 43.2179 15.7093 43.2179 15.7812C43.2179 15.9241 43.1283 15.9956 42.9479 15.9956H42.7528V15.5699ZM42.7528 16.1452H42.8722C42.9564 16.1452 43.0341 16.2196 43.1057 16.3705L43.2474 16.6699H43.4698L43.2987 16.3374C43.2272 16.2 43.155 16.1229 43.0827 16.1065V16.1016C43.1871 16.0803 43.2693 16.0396 43.3261 15.9789C43.385 15.9189 43.4137 15.8464 43.4137 15.7602C43.4137 15.6631 43.3778 15.5854 43.3069 15.5244C43.2227 15.4539 43.1002 15.4197 42.9366 15.4197H42.5694V16.6699H42.7528V16.1452Z" fill="white"/>
</svg>
