<svg width="50" height="50" viewBox="0 0 50 50" fill="none" xmlns="http://www.w3.org/2000/svg">
<path d="M45 0H5C2.23858 0 0 2.23858 0 5V45C0 47.7614 2.23858 50 5 50H45C47.7614 50 50 47.7614 50 45V5C50 2.23858 47.7614 0 45 0Z" fill="#E535AB"/>
<path d="M12.3941 32.7114L13.549 33.3896L26.4154 10.7233L25.2605 10.0451L12.3941 32.7114Z" fill="white"/>
<path d="M37.8624 30.8994H12.1296V32.2559H37.8624V30.8994Z" fill="white"/>
<path d="M12.6388 31.6615L25.51 39.2202L26.1768 38.0455L13.3056 30.4868L12.6388 31.6615Z" fill="white"/>
<path d="M23.82 11.9618L36.6912 19.5205L37.358 18.3458L24.4868 10.7871L23.82 11.9618Z" fill="white"/>
<path d="M12.6423 18.3414L13.3091 19.5161L26.1804 11.9574L25.5135 10.7827L12.6423 18.3414Z" fill="white"/>
<path d="M23.5875 10.7233L36.4539 33.3896L37.6088 32.7114L24.7424 10.0451L23.5875 10.7233Z" fill="white"/>
<path d="M14.4835 17.4409H13.1499V32.5584H14.4835V17.4409Z" fill="white"/>
<path d="M36.8501 17.4409H35.5164V32.5584H36.8501V17.4409Z" fill="white"/>
<path d="M24.7005 37.6199L25.2829 38.646L36.4774 32.072L35.895 31.0458L24.7005 37.6199Z" fill="white"/>
<path d="M38.6176 32.9998C37.8463 34.3645 36.127 34.8303 34.7854 34.0458C33.4437 33.2613 32.9858 31.5126 33.757 30.148C34.5283 28.7833 36.2475 28.3175 37.5892 29.102C38.9389 29.8946 39.3969 31.6352 38.6176 32.9998Z" fill="white"/>
<path d="M16.2349 19.8519C15.4637 21.2165 13.7444 21.6823 12.4027 20.8979C11.0611 20.1134 10.6031 18.3647 11.3744 17C12.1456 15.6354 13.8649 15.1696 15.2066 15.954C16.5483 16.7467 17.0062 18.4872 16.2349 19.8519Z" fill="white"/>
<path d="M11.3827 32.9998C10.6114 31.6352 11.0693 29.8946 12.411 29.102C13.7527 28.3175 15.4639 28.7833 16.2432 30.148C17.0145 31.5126 16.5565 33.2532 15.2149 34.0458C13.8652 34.8303 12.1539 34.3645 11.3827 32.9998Z" fill="white"/>
<path d="M33.7651 19.8519C32.9938 18.4872 33.4517 16.7467 34.7934 15.954C36.1351 15.1696 37.8463 15.6354 38.6256 17C39.3969 18.3647 38.9389 20.1052 37.5973 20.8979C36.2556 21.6823 34.5363 21.2165 33.7651 19.8519Z" fill="white"/>
<path d="M25 41.0002C23.4494 41.0002 22.1961 39.7254 22.1961 38.1483C22.1961 36.5712 23.4494 35.2964 25 35.2964C26.5505 35.2964 27.8038 36.5712 27.8038 38.1483C27.8038 39.7172 26.5505 41.0002 25 41.0002Z" fill="white"/>
<path d="M25 14.7038C23.4494 14.7038 22.1961 13.429 22.1961 11.8519C22.1961 10.2748 23.4494 9 25 9C26.5505 9 27.8038 10.2748 27.8038 11.8519C27.8038 13.429 26.5505 14.7038 25 14.7038Z" fill="white"/>
</svg>
