<svg width="50" height="50" viewBox="0 0 50 50" fill="none" xmlns="http://www.w3.org/2000/svg">
<path d="M45 0H5C2.23858 0 0 2.23858 0 5V45C0 47.7614 2.23858 50 5 50H45C47.7614 50 50 47.7614 50 45V5C50 2.23858 47.7614 0 45 0Z" fill="#326CE5"/>
<path d="M24.8891 9.00282C24.6062 9.01751 24.329 9.08979 24.0738 9.21544L12.949 14.6937C12.6611 14.8354 12.4081 15.0416 12.2088 15.297C12.0096 15.5524 11.8691 15.8504 11.798 16.1689L9.05345 28.4745C8.99007 28.758 8.98298 29.0516 9.03259 29.338C9.0822 29.6244 9.1875 29.8977 9.34227 30.1417C9.3798 30.2014 9.42016 30.2591 9.46321 30.3147L17.1633 40.1818C17.3626 40.4371 17.6157 40.6432 17.9036 40.7849C18.1916 40.9265 18.507 41.0001 18.8266 41L31.1749 40.9971C31.4944 40.9973 31.8098 40.924 32.0977 40.7826C32.3856 40.6412 32.6387 40.4354 32.8382 40.1803L40.5355 30.3118C40.7349 30.0563 40.8754 29.7582 40.9466 29.4396C41.0178 29.121 41.0178 28.7901 40.9466 28.4715L38.1978 16.1659C38.1267 15.8475 37.9863 15.5495 37.787 15.2941C37.5877 15.0387 37.3347 14.8325 37.0468 14.6908L25.9206 9.21544C25.5996 9.05739 25.2449 8.98428 24.8891 9.00282Z" fill="white"/>
<path d="M24.9993 13.1907C24.6316 13.1907 24.3334 13.5321 24.3334 13.9532C24.3334 13.9596 24.3347 13.9658 24.3349 13.9722C24.3343 14.0295 24.3316 14.0984 24.3334 14.1482C24.3422 14.3911 24.3936 14.577 24.4245 14.8007C24.4805 15.2797 24.5274 15.6767 24.4985 16.0457C24.4703 16.1848 24.3709 16.3121 24.2822 16.4005L24.2666 16.6908C23.867 16.725 23.4647 16.7874 23.0629 16.8815C21.3339 17.2861 19.8453 18.2039 18.712 19.4432C18.6385 19.3915 18.5098 19.2964 18.4715 19.2672C18.3527 19.2838 18.2325 19.3216 18.076 19.2276C17.778 19.0209 17.5066 18.7355 17.1782 18.3918C17.0278 18.2274 16.9188 18.0708 16.74 17.9123C16.6994 17.8763 16.6375 17.8276 16.592 17.7906C16.4523 17.6758 16.2874 17.6159 16.1282 17.6102C15.9235 17.603 15.7265 17.6855 15.5975 17.8522C15.3683 18.1485 15.4417 18.6015 15.7611 18.864C15.7644 18.8666 15.7678 18.8687 15.7711 18.8713C15.815 18.908 15.8688 18.955 15.9091 18.9857C16.0988 19.13 16.2721 19.2039 16.4611 19.3185C16.8594 19.572 17.1895 19.7822 17.4514 20.0356C17.5537 20.1479 17.5715 20.3459 17.5852 20.4315L17.7986 20.628C16.6561 22.4 16.1273 24.5887 16.4398 26.8189L16.1609 26.9025C16.0874 27.0003 15.9836 27.1542 15.875 27.2002C15.5323 27.3114 15.1468 27.3522 14.6812 27.4025C14.4627 27.4212 14.2741 27.4101 14.0424 27.4553C13.9914 27.4653 13.9204 27.4843 13.8646 27.4978C13.8626 27.4983 13.8608 27.4988 13.8589 27.4993C13.8558 27.5 13.8518 27.5015 13.8489 27.5022C13.4564 27.6 13.2043 27.9717 13.2855 28.338C13.3667 28.7044 13.75 28.9272 14.1449 28.8395C14.1477 28.8389 14.1518 28.8388 14.1548 28.8381C14.1593 28.837 14.1632 28.8348 14.1676 28.8337C14.2227 28.8212 14.2916 28.8074 14.3398 28.7941C14.5676 28.7312 14.7326 28.6389 14.9373 28.558C15.3779 28.3951 15.7428 28.2591 16.0983 28.2061C16.2468 28.1941 16.4033 28.3005 16.4811 28.3454L16.7713 28.2941C17.4392 30.4283 18.839 32.1533 20.6114 33.2357L20.4905 33.5348C20.5341 33.6509 20.5822 33.8081 20.5497 33.9228C20.4204 34.2682 20.1991 34.6328 19.947 35.0393C19.8249 35.227 19.7 35.3728 19.5899 35.5877C19.5635 35.6391 19.5299 35.7181 19.5045 35.7724C19.3334 36.1498 19.4589 36.5844 19.7876 36.7476C20.1184 36.9117 20.529 36.7386 20.7067 36.3604C20.707 36.3599 20.7079 36.3595 20.7082 36.359C20.7083 36.3586 20.708 36.3579 20.7082 36.3575C20.7335 36.3039 20.7693 36.2334 20.7907 36.183C20.885 35.9603 20.9164 35.7694 20.9828 35.554C21.1589 35.0979 21.2557 34.6193 21.4983 34.3211C21.5647 34.2394 21.673 34.208 21.7852 34.1771L21.936 33.8955C23.4812 34.5068 25.2108 34.6708 26.9386 34.2665C27.3327 34.1743 27.7132 34.0549 28.0811 33.9116C28.1234 33.9891 28.2022 34.1381 28.2233 34.1756C28.3374 34.2138 28.4619 34.2336 28.5634 34.3882C28.7448 34.7077 28.8689 35.0857 29.0201 35.5422C29.0864 35.7577 29.1192 35.9485 29.2136 36.1713C29.2351 36.2221 29.2708 36.2935 29.2961 36.3472C29.4734 36.7266 29.8854 36.9003 30.2167 36.7358C30.5454 36.5726 30.671 36.138 30.4998 35.7607C30.4743 35.7064 30.4394 35.6274 30.413 35.5759C30.3028 35.3611 30.1779 35.2168 30.0559 35.029C29.8038 34.6226 29.5947 34.2849 29.4654 33.9395C29.4114 33.7614 29.4745 33.6506 29.5166 33.5348C29.4914 33.505 29.4375 33.3368 29.4057 33.2577C31.2477 32.1367 32.6063 30.3474 33.2444 28.2809C33.3305 28.2948 33.4803 28.3221 33.5289 28.3322C33.6291 28.2641 33.7211 28.1753 33.9017 28.19C34.2572 28.2429 34.6221 28.379 35.0627 28.5419C35.2675 28.6227 35.4324 28.7166 35.6602 28.7794C35.7084 28.7927 35.7774 28.8051 35.8324 28.8175C35.8368 28.8187 35.8407 28.8209 35.8452 28.8219C35.8482 28.8226 35.8523 28.8227 35.8552 28.8234C36.25 28.911 36.6334 28.6883 36.7145 28.3219C36.7956 27.9556 36.5436 27.5837 36.1511 27.4861C36.094 27.4727 36.0131 27.45 35.9576 27.4392C35.7259 27.394 35.5373 27.4051 35.3188 27.3864C34.8533 27.3361 34.4677 27.2952 34.1251 27.184C33.9854 27.1282 33.886 26.9569 33.8377 26.8864L33.5687 26.8057C33.7082 25.7662 33.6706 24.6843 33.4293 23.6017C33.1858 22.5092 32.7555 21.5099 32.1815 20.6295C32.2505 20.5648 32.3808 20.4459 32.4177 20.411C32.4285 20.2878 32.4192 20.1587 32.5429 20.0224C32.8048 19.769 33.1349 19.5588 33.5332 19.3053C33.7222 19.1907 33.8969 19.1169 34.0866 18.9725C34.1295 18.9398 34.1881 18.8881 34.2332 18.8508C34.5526 18.5882 34.6261 18.1353 34.3968 17.839C34.1675 17.5427 33.7231 17.5148 33.4037 17.7774C33.3582 17.8145 33.2965 17.8629 33.2557 17.8991C33.077 18.0576 32.9666 18.2142 32.8161 18.3786C32.4877 18.7224 32.2163 19.0092 31.9183 19.2159C31.7892 19.2934 31.6001 19.2666 31.5142 19.2614L31.261 19.4476C29.8168 17.8869 27.8506 16.8891 25.7335 16.6952C25.7275 16.6038 25.7198 16.4385 25.7178 16.3888C25.6311 16.3033 25.5264 16.2303 25.5001 16.0457C25.4712 15.6767 25.5195 15.2797 25.5755 14.8007C25.6064 14.577 25.6578 14.3911 25.6666 14.1482C25.6686 14.093 25.6654 14.0129 25.6652 13.9532C25.6651 13.5321 25.367 13.1906 24.9993 13.1907H24.9993ZM24.1655 18.5135L23.9678 22.1134L23.9536 22.1207C23.9403 22.4428 23.6831 22.6999 23.3674 22.6999C23.238 22.6999 23.1186 22.6571 23.0216 22.5841L23.0159 22.587L20.1519 20.4946C21.0321 19.6025 22.158 18.9433 23.4556 18.6396C23.6926 18.5842 23.9295 18.543 24.1655 18.5135ZM25.8345 18.5135C27.3494 18.7055 28.7504 19.4125 29.824 20.496L26.9784 22.5753L26.9684 22.5709C26.7159 22.761 26.36 22.7138 26.1631 22.4595C26.0825 22.3552 26.0402 22.2327 26.0351 22.109L26.0322 22.1075L25.8345 18.5135ZM19.1132 21.8392L21.7283 24.2499L21.7255 24.2645C21.9615 24.476 21.9963 24.843 21.7995 25.0974C21.7188 25.2016 21.6109 25.2715 21.495 25.3042L21.4921 25.3159L18.14 26.313C17.9694 24.7052 18.3371 23.1423 19.1132 21.8392ZM30.8669 21.8407C31.2554 22.4897 31.5497 23.2147 31.7248 24.0006C31.8979 24.7771 31.9413 25.5522 31.8699 26.3013L28.5008 25.3012L28.4979 25.2866C28.1962 25.2016 28.0108 24.8853 28.0811 24.5681C28.1098 24.4381 28.1768 24.3282 28.2674 24.2469L28.266 24.2396L30.8669 21.8407H30.8669ZM24.4629 24.4361H25.5343L26.2001 25.2939L25.9611 26.3643L24.9993 26.8409L24.0347 26.3629L23.7956 25.2924L24.4629 24.4361ZM27.8975 27.3717C27.943 27.3694 27.9884 27.3736 28.0327 27.382L28.0384 27.3747L31.5057 27.9788C30.9983 29.4481 30.0272 30.721 28.7298 31.5728L27.3839 28.2222L27.3882 28.2163C27.2645 27.9203 27.3882 27.573 27.6727 27.4318C27.7455 27.3957 27.8216 27.3757 27.8975 27.3717H27.8975ZM22.074 27.3864C22.3387 27.3902 22.576 27.5795 22.6375 27.8571C22.6663 27.987 22.6522 28.1158 22.6047 28.2295L22.6147 28.2427L21.283 31.5596C20.0379 30.7362 19.0462 29.5033 18.5157 27.9905L21.9531 27.3893L21.9588 27.3967C21.9973 27.3894 22.0362 27.3858 22.074 27.3864V27.3864ZM24.978 28.8395C25.0701 28.836 25.1637 28.8555 25.2526 28.8997C25.3691 28.9575 25.4591 29.0486 25.5158 29.1577H25.5286L27.2231 32.3133C27.0032 32.3893 26.7771 32.4542 26.5459 32.5083C25.2499 32.8116 23.9581 32.7197 22.7883 32.3089L24.4786 29.1592H24.4814C24.5828 28.9638 24.7752 28.8472 24.978 28.8395Z" fill="#326CE5" stroke="white" stroke-width="0.25"/>
</svg>
