<svg width="50" height="50" viewBox="0 0 50 50" fill="none" xmlns="http://www.w3.org/2000/svg">
<g clip-path="url(#clip0_1_798)">
<path d="M45 0H5C2.23858 0 0 2.23858 0 5V45C0 47.7614 2.23858 50 5 50H45C47.7614 50 50 47.7614 50 45V5C50 2.23858 47.7614 0 45 0Z" fill="black"/>
</g>
<g clip-path="url(#clip1_1_798)">
<path d="M27.6719 10.0703C27.4609 10.0703 27.25 10.1172 27.0625 10.1875C27.4609 10.4453 27.6719 10.7969 27.7891 11.1953C27.7891 11.2422 27.8125 11.2891 27.8125 11.3359C27.8125 11.3828 27.8359 11.4297 27.8359 11.4766C27.8594 12.1563 27.6484 12.25 27.5078 12.6484C27.2734 13.1641 27.3437 13.7266 27.625 14.1719C27.6484 14.2188 27.6719 14.2891 27.7187 14.3359C27.4141 12.3672 29.0547 12.0859 29.3594 11.4766C29.3828 10.9375 28.9375 10.5859 28.5859 10.3281C28.2344 10.1172 27.9531 10.0703 27.6719 10.0703ZM30.1328 10.4922C30.1094 10.6797 30.1328 10.6328 30.1094 10.7266C30.1094 10.7969 30.1094 10.8672 30.0859 10.9375C30.0625 11.0078 30.0625 11.0547 30.0391 11.125C30.0156 11.1953 29.9922 11.2422 29.9687 11.3125C29.9453 11.3594 29.9219 11.4062 29.8984 11.4766C29.875 11.5 29.8516 11.5469 29.8281 11.5703C29.8047 11.5937 29.8047 11.6172 29.7812 11.6406C29.7344 11.6875 29.7109 11.7578 29.6641 11.8047L29.5234 11.9453C29.4766 11.9922 29.4297 12.0391 29.3828 12.0625C29.2187 12.1797 29.0312 12.2734 28.8672 12.3906C28.8203 12.4375 28.75 12.4609 28.7031 12.5078C28.6563 12.5547 28.6094 12.5781 28.5625 12.625L28.4219 12.7656C28.375 12.8125 28.3281 12.8594 28.3047 12.9297C28.2578 12.9766 28.2344 13.0469 28.1875 13.0937C28.1641 13.1641 28.1406 13.2109 28.0937 13.2812C28.0703 13.3516 28.0469 13.3984 28.0234 13.4688C28 13.5391 27.9766 13.6094 27.9766 13.6563C27.9766 13.6797 27.9766 13.7266 27.9531 13.75C27.9531 13.7734 27.9531 13.8203 27.9297 13.8438V14.1719C27.9297 14.2422 27.9297 14.2891 27.9531 14.3594C27.9531 14.4297 27.9766 14.4766 28 14.5469C28.0234 14.6172 28.0469 14.6641 28.0703 14.7344C28.0937 14.7813 28.1172 14.8047 28.1172 14.8516L26.3359 14.1719C26.0312 14.0781 25.75 14.0078 25.4453 13.9375C25.2813 13.8906 25.1172 13.8672 24.9531 13.8203C24.4844 13.7266 24.0156 13.6562 23.5469 13.6094H23.5C23.0312 13.5625 22.5859 13.5391 22.1172 13.5391C21.7656 13.5391 21.4375 13.5625 21.1094 13.5859C20.6406 13.6094 20.1719 13.6797 19.7031 13.75L19.3516 13.8203C19.1172 13.8672 18.8828 13.9141 18.6484 13.9844C18.5312 14.0078 18.4141 14.0547 18.2969 14.0781C18.1797 14.125 18.0625 14.1719 17.9687 14.2188C17.875 14.2656 17.8047 14.2891 17.7109 14.3359C17.6875 14.3359 17.6875 14.3359 17.6641 14.3594C17.5937 14.4063 17.5234 14.4297 17.4531 14.4766C17.4297 14.4766 17.4063 14.5 17.4063 14.5C17.3125 14.5469 17.2422 14.5938 17.1719 14.6172C17.125 14.6406 17.0547 14.6641 17.0078 14.6875C16.9844 14.7109 16.9609 14.7109 16.9375 14.7344C16.8672 14.7813 16.7969 14.8047 16.7266 14.8516C16.6563 14.8984 16.5859 14.9219 16.5391 14.9688C16.4922 15.0156 16.4219 15.0391 16.375 15.0859C16.375 15.0859 16.3516 15.0859 16.3516 15.1094C16.3047 15.1328 16.2578 15.1797 16.2109 15.2266L16.1875 15.25C16.1406 15.2734 16.1172 15.3203 16.0703 15.3438C16.0469 15.3438 16.0469 15.3672 16.0234 15.3672C15.9766 15.3906 15.9531 15.4375 15.9063 15.4609C15.9063 15.4844 15.8828 15.4844 15.8828 15.4844L15.7422 15.625L15.7188 15.6484L15.5781 15.7891C15.5781 15.7891 15.5781 15.8125 15.5547 15.8125L15.4375 15.9297C15.4141 15.9531 15.3906 15.9531 15.3906 15.9766L15.25 16.1172C15.25 16.1406 15.2266 16.1406 15.2266 16.1641L15.0391 16.3516L15.0156 16.375C14.8984 16.5156 14.7578 16.6328 14.6172 16.75C14.4766 16.8672 14.3359 16.9844 14.1719 17.1016C14.0078 17.2188 13.8672 17.3125 13.7031 17.4063C13.5391 17.5 13.375 17.5703 13.2109 17.6406C13.0469 17.7109 12.8828 17.7813 12.7188 17.8281C12.3906 17.8984 12.0625 18.0391 11.7812 18.0625C11.7812 17.9453 11.7109 17.9688 11.6406 17.9688C11.5703 17.9922 11.5 17.9922 11.4531 18.0156C11.3828 18.0391 11.3359 18.0625 11.2656 18.0859C11.1953 18.1094 11.1484 18.1328 11.0781 18.1797C11.0312 18.2266 10.9609 18.25 10.9141 18.2969C10.8672 18.3438 10.7969 18.3906 10.75 18.4375C10.7031 18.4844 10.6328 18.5312 10.5859 18.5781C10.5391 18.625 10.4922 18.6719 10.4453 18.7422C10.3984 18.8125 10.3516 18.8594 10.3281 18.9297C10.2812 18.9766 10.2578 19.0469 10.2109 19.1172C10.1875 19.1875 10.1406 19.2578 10.1172 19.3281L10.0469 19.5391C10.0234 19.6094 10.0234 19.6563 10 19.7266V19.75C9.97656 19.8203 9.97656 19.9141 9.97656 19.9609C10 19.9375 10 19.9844 10 20.0312V20.125C10 20.1719 10.0234 20.2187 10.0234 20.2656C10.0469 20.3125 10.0469 20.3594 10.0703 20.4063C10.0938 20.4531 10.1172 20.5 10.1641 20.5469C10.1875 20.5938 10.2344 20.6406 10.2578 20.6875C10.3047 20.7344 10.3516 20.7812 10.3984 20.8047C10.4453 20.8516 10.4922 20.8984 10.5391 20.9219C10.7266 21.0859 10.7734 21.1328 11.0078 21.2734C11.0547 21.2969 11.0781 21.3203 11.125 21.3438H11.1484V21.3906C11.1484 21.4609 11.1719 21.5078 11.1953 21.5781C11.2187 21.6484 11.2422 21.7188 11.2656 21.7656L11.3359 21.9062C11.3359 21.9297 11.3594 21.9297 11.3594 21.9531C11.3828 22.0234 11.4297 22.0703 11.4531 22.1172C11.5 22.1641 11.5234 22.2344 11.5703 22.2813L11.7109 22.4219L11.8516 22.5625H11.875C11.9219 22.6094 11.9688 22.6328 12.0156 22.6797C12.0625 22.7266 12.1328 22.75 12.1797 22.7734C12.2266 22.7969 12.2969 22.8438 12.3672 22.8672C12.4141 22.8906 12.4609 22.9141 12.5313 22.9141C12.5313 22.9141 12.5547 22.9141 12.5547 22.9375C12.5781 22.9375 12.625 22.9609 12.6484 22.9609C12.625 23.3828 12.625 23.7813 12.6719 23.9219C12.7422 24.0859 13.0938 23.5938 13.4219 23.0547C13.375 23.5938 13.3516 24.2266 13.4219 24.4141C13.5156 24.6016 13.9609 23.9922 14.3828 23.3359C19.8672 22.0703 24.8828 25.8672 25.4219 31.2344C25.3281 30.3906 24.2969 29.9219 23.8047 30.0391C23.5703 30.6016 23.1719 31.3516 22.5391 31.7969C22.5859 31.2812 22.5625 30.7656 22.4687 30.25C22.3047 30.9531 21.9766 31.6328 21.5078 32.1953C20.7812 32.2422 20.0312 31.8906 19.6562 31.3516C19.6328 31.3281 19.6094 31.2812 19.5859 31.2578C19.5625 31.2109 19.5391 31.1406 19.5156 31.0937C19.4922 31.0469 19.4688 30.9766 19.4688 30.9297V30.7656V30.6484C19.4688 30.6016 19.4922 30.5312 19.5156 30.4844C19.5391 30.4375 19.5391 30.3672 19.5625 30.3203C19.5859 30.2734 19.6094 30.2031 19.6562 30.1562C19.7969 29.7812 19.7969 29.4766 19.5391 29.3125L19.3984 29.2422C19.375 29.2422 19.3281 29.2187 19.3047 29.2187C19.2812 29.2187 19.2578 29.1953 19.2344 29.1953C19.1875 29.1719 19.1172 29.1719 19.0703 29.1484C19.0234 29.125 18.9531 29.125 18.9062 29.125C18.8594 29.125 18.7891 29.1016 18.7422 29.1016H18.625C18.5547 29.1016 18.5078 29.1016 18.4609 29.125C18.4141 29.125 18.3438 29.1484 18.2969 29.1484C18.25 29.1719 18.1797 29.1719 18.1328 29.1953C18.0859 29.2187 18.0391 29.2422 17.9687 29.2656L17.8281 29.3359C16.0234 30.5078 17.1016 33.2734 18.3203 34.0703C17.8516 34.1641 17.3828 34.2578 17.2422 34.3516L17.2187 34.375C17.5469 34.5859 17.8984 34.75 18.2734 34.8906C18.7656 35.0547 19.3047 35.1953 19.5391 35.2656C20.1719 35.4063 20.8281 35.4531 21.4844 35.4062C24.9062 35.1719 27.7188 32.5469 28.2344 29.125C28.2578 29.1953 28.2578 29.2656 28.2812 29.3359C28.3047 29.4766 28.3281 29.6172 28.3516 29.7812C28.375 29.8516 28.375 29.9219 28.375 29.9922V30.0156C28.375 30.0859 28.3984 30.1562 28.3984 30.2266C28.3984 30.3203 28.4219 30.3906 28.4219 30.4844V31.4687C28.4219 31.5391 28.3984 31.5859 28.3984 31.6562V31.7266C28.3984 31.7969 28.375 31.8672 28.375 31.9609C28.3516 32.0312 28.3516 32.1016 28.3281 32.1719V32.1953C28.3047 32.2656 28.3047 32.3359 28.2812 32.4062V32.4297C28.2578 32.5 28.2578 32.5703 28.2344 32.6406V32.6641L28.1641 32.875V32.8984C28.1406 32.9687 28.1172 33.0625 28.0937 33.1328C28.0703 33.2031 28.0469 33.2734 28 33.3672C27.9766 33.4375 27.9531 33.5312 27.9062 33.6016C27.8828 33.6719 27.8359 33.7422 27.8125 33.8359C27.7891 33.9062 27.7422 33.9766 27.7187 34.0469C27.7187 34.0703 27.6953 34.0938 27.6953 34.0938C27.6953 34.0938 27.6953 34.1172 27.6719 34.1172C27.1797 35.125 26.4297 36.0156 25.4922 36.7187C25.4219 36.7656 25.375 36.8125 25.3047 36.8594C25.2813 36.8828 25.2578 36.8828 25.2578 36.9062C25.2109 36.9531 25.1406 36.9766 25.0938 37.0234L25.1172 37.0703C25.2344 37.0469 25.3281 37.0469 25.4453 37.0234C25.6562 37 25.8437 36.9531 26.0547 36.9062C26.1016 36.9062 26.1719 36.8828 26.2187 36.8594C26.2656 36.8594 26.2891 36.8359 26.3359 36.8359C26.3828 36.8359 26.4531 36.8125 26.5 36.8125C26.5469 36.7891 26.5937 36.7891 26.6406 36.7656C27.4141 36.5781 28.1641 36.3203 28.8906 36.0156C27.6484 37.7031 26.0078 39.0625 24.0859 39.9531C24.9766 39.8828 25.8672 39.7422 26.7344 39.4844C29.8516 38.5703 32.4766 36.4609 34.0469 33.625C33.7187 35.4062 33.0156 37.1172 31.9609 38.6172C32.7109 38.125 33.3906 37.5391 34.0234 36.9062C35.7578 35.1016 36.9062 32.7812 37.2812 30.3203C37.5391 31.5391 37.6328 32.8047 37.5156 34.0469C43.1172 26.2422 37.9844 18.1563 35.8281 16.0234C35.8281 16 35.8047 16 35.8047 15.9766C35.8047 16.0703 35.8047 16.1641 35.7812 16.2578C35.7578 16.4453 35.7344 16.6094 35.7109 16.7734C35.6641 16.9375 35.6172 17.125 35.5703 17.2891C35.5234 17.4531 35.4531 17.6172 35.3828 17.7813C35.3125 17.9453 35.2422 18.1094 35.1484 18.25C35.0547 18.3906 34.9609 18.5547 34.8672 18.6953C34.7734 18.8359 34.6562 18.9766 34.5391 19.1172C34.4219 19.2578 34.3047 19.375 34.1641 19.5156C34.0937 19.5859 34.0234 19.6563 33.9297 19.7031C33.8594 19.75 33.8125 19.7969 33.7422 19.8672C33.6016 19.9844 33.4609 20.0781 33.2969 20.1719C33.1562 20.2656 32.9922 20.3594 32.8281 20.4297L32.3359 20.6406C32.1719 20.7109 32.0078 20.7578 31.8437 20.8047C31.6797 20.8516 31.4922 20.8984 31.3281 20.9219C31.1406 20.9453 30.9766 20.9688 30.8125 20.9922C30.6953 20.9922 30.5547 21.0156 30.4375 21.0156C30.25 21.0156 30.0859 20.9922 29.9219 20.9922C29.7344 20.9688 29.5703 20.9453 29.4063 20.9219C29.2188 20.8984 29.0547 20.8516 28.8906 20.7813C29.0547 20.7578 29.2422 20.7578 29.4063 20.7109C29.5938 20.6875 29.7578 20.6406 29.9219 20.5938C30.0859 20.5469 30.2734 20.5 30.4141 20.4297L30.9062 20.2187C31.0703 20.1484 31.2109 20.0547 31.375 19.9609C31.5156 19.8672 31.6797 19.75 31.8203 19.6563C31.9609 19.5391 32.1016 19.4219 32.2188 19.3047C32.3594 19.1875 32.4766 19.0469 32.5938 18.9297C32.7109 18.7891 32.8281 18.6484 32.9219 18.5078C32.9453 18.4844 32.9453 18.4609 32.9687 18.4375C33.0391 18.3203 33.1328 18.1797 33.2031 18.0625C33.2969 17.8984 33.3672 17.7578 33.4375 17.5938C33.5078 17.4297 33.5781 17.2656 33.625 17.1016L33.7656 16.6094C33.7891 16.4219 33.8359 16.2578 33.8359 16.0938C33.8594 15.9063 33.8594 15.7422 33.8594 15.5781C33.8594 15.4609 33.8594 15.3203 33.8359 15.2031C33.8125 15.0156 33.7891 14.8516 33.7656 14.6875C33.7422 14.5 33.6953 14.3359 33.6484 14.1719C33.6016 14.0078 33.5312 13.8437 33.4844 13.6797C33.4141 13.5156 33.3438 13.3516 33.2734 13.2109C33.1797 13.0469 33.1094 12.9062 33.0156 12.7422C32.9219 12.6016 32.8047 12.4609 32.7109 12.3203C32.5938 12.1797 32.4766 12.0625 32.3594 11.9219C32.2891 11.8516 32.2187 11.7812 32.1484 11.7344C31.7969 11.4531 31.4453 11.2187 31.0703 10.9844C31.0234 10.9609 30.9766 10.9375 30.9062 10.9141C30.6016 10.6563 30.3672 10.5859 30.1328 10.4922V10.4922Z" fill="#DF234F"/>
</g>
<defs>
<clipPath id="clip0_1_798">
<rect width="50" height="50" rx="5" fill="white"/>
</clipPath>
<clipPath id="clip1_1_798">
<rect width="30" height="30" fill="white" transform="translate(10 10)"/>
</clipPath>
</defs>
</svg>
