<svg width="50" height="50" viewBox="0 0 50 50" fill="none" xmlns="http://www.w3.org/2000/svg">
<path d="M45 0H5C2.23858 0 0 2.23858 0 5V45C0 47.7614 2.23858 50 5 50H45C47.7614 50 50 47.7614 50 45V5C50 2.23858 47.7614 0 45 0Z" fill="#CC0000"/>
<path fill-rule="evenodd" clip-rule="evenodd" d="M39.8169 30.1796V32H43.1207C43.7977 32 44.9596 31.5072 45 30.1293V29.4253C45 28.2486 44.0301 27.5546 43.1207 27.5546H41.4739V26.7098H44.7373V24.8794H41.6052C40.7969 24.8794 39.7158 25.5432 39.7158 26.7802V27.4138C39.7158 28.6509 40.7868 29.2845 41.6052 29.2845C43.8785 29.2946 41.0596 29.2845 43.1612 29.2845V30.1696L39.8169 30.1796ZM22.1154 29.7371C22.1154 29.7371 23.8836 29.5862 23.8836 27.3133C23.8836 25.0403 21.7416 24.8291 21.7416 24.8291H17.882V32H19.8219V30.2701L21.4991 32H24.3685L22.1154 29.7371ZM21.3678 28.2687H19.8219V26.6294H21.3779C21.3779 26.6294 21.8123 26.7903 21.8123 27.444C21.8123 28.0977 21.3678 28.2687 21.3678 28.2687ZM28.6727 24.8794H26.7025C25.2981 24.8794 24.8232 26.1466 24.8232 26.7501V32H26.7934V30.7428H28.6423V32H30.5519V26.7501C30.5519 25.2213 29.1576 24.8794 28.6727 24.8794ZM28.6423 28.7112H26.7833V26.9713C26.7833 26.9713 26.7833 26.5791 27.3996 26.5791H28.0765C28.6221 26.5791 28.6322 26.9713 28.6322 26.9713V28.7112H28.6423Z" fill="white"/>
<path d="M33.5022 24.8794H31.4511V32H33.5022V24.8794Z" fill="white"/>
<path fill-rule="evenodd" clip-rule="evenodd" d="M36.3817 30.1595V24.8794H34.3408V30.1595V32H36.3817H39.14V30.1595H36.3817Z" fill="white"/>
<path fill-rule="evenodd" clip-rule="evenodd" d="M5.70724 32H13.6891C13.6891 32 12.1634 25.0705 17.2152 22.2645C18.3165 21.7315 21.8224 19.7401 27.5612 23.9642C27.7431 23.8134 27.9149 23.6927 27.9149 23.6927C27.9149 23.6927 22.661 18.4729 16.8111 19.0562C13.8709 19.3177 10.2538 21.9829 8.1321 25.503C6.01035 29.0231 5.70724 32 5.70724 32Z" fill="white"/>
<path fill-rule="evenodd" clip-rule="evenodd" d="M5.70724 32H13.6891C13.6891 32 12.1634 25.0705 17.2152 22.2645C18.3165 21.7315 21.8224 19.7401 27.5612 23.9642C27.7431 23.8134 27.9149 23.6927 27.9149 23.6927C27.9149 23.6927 22.661 18.4729 16.8111 19.0562C13.8709 19.3177 10.2538 21.9829 8.1321 25.503C6.01035 29.0231 5.70724 32 5.70724 32Z" fill="white"/>
<path fill-rule="evenodd" clip-rule="evenodd" d="M5.70724 31.9997H13.6891C13.6891 31.9997 12.1634 25.0702 17.2152 22.2642C18.3165 21.7312 21.8224 19.7398 27.5612 23.9639C27.7431 23.813 27.9149 23.6923 27.9149 23.6923C27.9149 23.6923 22.661 18.4726 16.8111 19.0559C13.8608 19.3174 10.2437 21.9826 8.122 25.5027C6.00025 29.0227 5.70724 31.9997 5.70724 31.9997ZM22.3377 19.6191L22.3781 18.9453C22.2872 18.895 22.0346 18.7743 21.3981 18.5933L21.3577 19.257C21.6911 19.3677 22.0144 19.4884 22.3377 19.6191Z" fill="white"/>
<path fill-rule="evenodd" clip-rule="evenodd" d="M21.3779 21.7514L21.3375 22.385C21.6709 22.3951 22.0043 22.4353 22.3377 22.5057L22.3781 21.8821C22.0346 21.8117 21.7012 21.7715 21.3779 21.7514ZM17.6396 18.6135H17.7406L17.5385 18C17.2253 18 16.902 18.0201 16.5686 18.0603L16.7605 18.6537C17.0535 18.6236 17.3465 18.6135 17.6396 18.6135ZM18.1245 22.3146L18.3569 23.0086C18.6499 22.8678 18.9429 22.7471 19.2359 22.6566L19.0136 21.9928C18.6701 22.0933 18.3771 22.204 18.1245 22.3146ZM13.5375 19.6695L13.0828 18.9756C12.8303 19.1063 12.5676 19.2471 12.2948 19.408L12.7595 20.112C13.0222 19.9511 13.2748 19.8003 13.5375 19.6695ZM15.6087 24.1953L16.0937 24.9195C16.2655 24.668 16.4675 24.4367 16.6898 24.2054L16.2352 23.5215C16.0028 23.7327 15.7906 23.964 15.6087 24.1953ZM14.1437 27.4338L14.9621 28.0775C15.0025 27.6852 15.0732 27.293 15.1743 26.9008L14.4468 26.3275C14.3155 26.6996 14.2246 27.0717 14.1437 27.4338ZM9.71836 22.6566L9.00101 22.033C8.73832 22.2844 8.48573 22.5359 8.25335 22.7873L9.03132 23.4511C9.2435 23.1795 9.47588 22.908 9.71836 22.6566ZM6.66709 27.1522L5.50518 26.7298C5.31321 27.1622 5.10104 27.6651 5 27.9367L6.16191 28.3591C6.29326 28.0171 6.50543 27.5243 6.66709 27.1522ZM13.9922 29.9884C14.0124 30.5214 14.0629 30.9539 14.1134 31.2556L15.3258 31.6881C15.2349 31.2958 15.144 30.8533 15.0834 30.3806L13.9922 29.9884Z" fill="white"/>
</svg>
