<svg width="50" height="50" viewBox="0 0 50 50" fill="none" xmlns="http://www.w3.org/2000/svg">
<path d="M45 0H5C2.23858 0 0 2.23858 0 5V45C0 47.7614 2.23858 50 5 50H45C47.7614 50 50 47.7614 50 45V5C50 2.23858 47.7614 0 45 0Z" fill="#F44336"/>
<path d="M35.878 9.01613C39.9095 9.70829 41.0614 12.4931 40.9975 15.4064V15.342L39.1738 39.3742L15.528 41H15.544C13.5762 40.9195 9.2086 40.7264 9.00064 34.5775L11.1924 30.5533L15.6239 40.9516L19.3995 28.6861L19.3196 28.7022L19.3516 28.67L31.6862 32.6297L28.5025 20.1066L40.2612 19.3661L30.9982 11.7364L35.8777 9V9.0161L35.878 9.01613ZM9 34.5139V34.5461V34.5139ZM15.8473 15.7135C20.5827 10.965 26.7101 8.16413 29.0618 10.5625C31.3975 12.9287 28.9338 18.7556 24.1983 23.4881C19.3989 28.2205 13.3674 31.1824 11.0158 28.8C8.66403 26.4017 11.0798 20.4458 15.8312 15.7135H15.8473Z" fill="white"/>
</svg>
