<svg width="50" height="50" viewBox="0 0 50 50" fill="none" xmlns="http://www.w3.org/2000/svg">
<path d="M45 0H5C2.23858 0 0 2.23858 0 5V45C0 47.7614 2.23858 50 5 50H45C47.7614 50 50 47.7614 50 45V5C50 2.23858 47.7614 0 45 0Z" fill="#010101"/>
<path d="M20.9479 9.50512C25.0881 8.44223 29.6641 9.0616 33.3155 11.3175C37.9142 14.0705 40.9165 19.278 40.9929 24.6386C41.161 30.0526 38.342 35.4208 33.8121 38.3649C28.7702 41.7601 21.7957 41.8902 16.6469 38.6632C11.3989 35.5278 8.33552 29.2038 9.12247 23.132C9.75634 16.7162 14.7067 11.0575 20.9479 9.50525V9.50512Z" fill="white"/>
<path d="M20.3137 12.1282C28.1362 8.99287 37.731 14.7817 38.5406 23.1781C39.8012 30.7333 33.5371 38.4109 25.8902 38.6327C18.6178 39.3592 11.5898 33.1879 11.3836 25.8776C10.8412 19.9588 14.7372 14.0859 20.3137 12.1282Z" fill="black"/>
<path d="M21.1005 24.1874C24.607 21.3197 28.0369 18.3526 31.6197 15.5691C29.7404 18.4598 27.8078 21.312 25.9285 24.2026C24.3166 24.2103 22.7048 24.2103 21.1005 24.1873V24.1874ZM24.0646 25.7855C25.684 25.7855 27.2959 25.7855 28.9078 25.8085C25.3785 28.6608 21.9638 31.6507 18.3734 34.4267C20.2526 31.536 22.1853 28.6762 24.0646 25.7855Z" fill="white"/>
</svg>
