<svg width="50" height="50" viewBox="0 0 50 50" fill="none" xmlns="http://www.w3.org/2000/svg">
<path d="M45 0H5C2.23858 0 0 2.23858 0 5V45C0 47.7614 2.23858 50 5 50H45C47.7614 50 50 47.7614 50 45V5C50 2.23858 47.7614 0 45 0Z" fill="url(#paint0_linear)"/>
<path d="M25 13C19.6667 13 16.3333 15.6667 15 21C17 18.3333 19.3333 17.3333 22 18C23.5215 18.3804 24.609 19.4841 25.8127 20.706C27.7736 22.6964 30.043 25 35 25C40.3333 25 43.6667 22.3333 45 17C43 19.6667 40.6667 20.6667 38 20C36.4785 19.6196 35.391 18.5159 34.1873 17.294C32.2264 15.3036 29.957 13 25 13ZM15 25C9.66667 25 6.33333 27.6667 5 33C7 30.3333 9.33333 29.3333 12 30C13.5215 30.3804 14.609 31.4841 15.8127 32.706C17.7736 34.6964 20.043 37 25 37C30.3333 37 33.6667 34.3333 35 29C33 31.6667 30.6667 32.6667 28 32C26.4785 31.6196 25.391 30.5159 24.1873 29.294C22.2264 27.3036 19.957 25 15 25Z" fill="white"/>
<defs>
<linearGradient id="paint0_linear" x1="-1.38889" y1="16" x2="50" y2="33.7778" gradientUnits="userSpaceOnUse">
<stop stop-color="#2298BD"/>
<stop offset="1" stop-color="#0ED7B5"/>
</linearGradient>
</defs>
</svg>
